<?xml version="1.0" encoding="UTF-8"?>
<svg id="Object" xmlns="http://www.w3.org/2000/svg" version="1.1" viewBox="0 0 250 250">
  <!-- Generator: Adobe Illustrator 30.0.0, SVG Export Plug-In . SVG Version: 2.1.1 Build 123)  -->
  <path d="M116.55,200.13v13.31H52.3v-4.09h15.87V40.66h-18.17v-4.09h15.36c17.66,0,34.04-1.28,51.19-4.87v81.66h1.28c6.66-16.64,17.92-22.53,35.84-22.53,34.3,0,46.33,29.43,46.33,63.74s-15.62,63.74-49.92,63.74c-15.87,0-26.36-6.14-32.25-18.17h-1.28ZM115.53,161.48c0,32,9.99,46.92,19.45,47.35,31.2,1.42,37.57-25.64,37.57-58.41s-5.73-50.92-37.57-48.08c-13.26,1.18-19.45,28.93-19.45,52.22v6.91Z"/>
</svg>