<?xml version="1.0" encoding="UTF-8"?>
<svg id="Object" xmlns="http://www.w3.org/2000/svg" version="1.1" viewBox="0 0 250 250">
  <!-- Generator: Adobe Illustrator 30.0.0, SVG Export Plug-In . SVG Version: 2.1.1 Build 123)  -->
  <path d="M222.46,68.81c-.63.39-1.19.87-1.84,1.24-.74.41-1.55.68-2.31,1.04,7.33,6.59,11.8,19.03,11.8,33.87,0,27.75-12.85,62.97-30.58,62.97s-30.59-32.65-30.59-95.61v-11.31c-17.21,3.59-34.94,4.88-52.67,4.88h-15.42v4.11h18.25v14.14c0,26.73,3.59,51.91,12.08,70.93-4.88,7.97-10.79,12.85-17.48,12.85-18.26,0-30.58-32.65-30.58-95.61v-11.31c-17.22,3.59-34.95,4.88-52.68,4.88h-15.42v4.11h18.25v14.14c0,55.26,15.42,104.86,59.62,104.86,17.73,0,31.87-11.31,41.64-27.49,9.52,16.96,23.64,27.49,44.21,27.49,34.95,0,56.29-44.21,56.29-82.24,0-18.32-5.09-30.69-12.54-37.94Z"/>
  <path d="M200.81,101.74c8.9,0,16.12-7.22,16.12-16.12s-7.22-16.12-16.12-16.12-16.12,7.22-16.12,16.12,7.22,16.12,16.12,16.12Z"/>
</svg>