<?xml version="1.0" encoding="UTF-8"?>
<svg id="Object" xmlns="http://www.w3.org/2000/svg" version="1.1" viewBox="0 0 250 250">
  <!-- Generator: Adobe Illustrator 30.0.0, SVG Export Plug-In . SVG Version: 2.1.1 Build 123)  -->
  <defs>
    <style>
      .st0 {
        fill: #684419;
      }
    </style>
  </defs>
  <path class="st0" d="M171.31,108.1c-.05.35-.11.71-.11,1.08v48.38c0,16.93-5.48,28.1-13.13,34.9-1.5,1.33-3.08,2.49-4.72,3.5-4.5,7.48-10.33,14-17.18,19.2,6.84-.2,13.19-1.64,18.89-4.19,1.12-.5,2.2-1.05,3.27-1.64,16.57-9.04,26.94-27.85,26.94-51.77v-48.38c0-2.17-1-4.09-2.55-5.38-3.69,1.68-7.49,3.12-11.4,4.3h0Z"/>
  <path class="st0" d="M100.04,181.22c-.25-.43-.49-.86-.73-1.3-.81-1.51-1.54-3.09-2.18-4.72-.15-.39-.3-.79-.44-1.19-2.77,1.66-5.98,2.65-9.43,2.73l-4.51.09c1.46,4.63,3.44,8.96,5.88,12.93,2.12.45,4.3.7,6.52.7,3.64,0,7.1-.66,10.3-1.87-.88-.95-1.73-1.95-2.52-2.99-.55-.72-1.07-1.47-1.57-2.22-.46-.7-.91-1.41-1.33-2.15h.01Z"/>
  <path class="st0" d="M143.33,51.56c-3.12.7-5.46,3.48-5.48,6.81l-.07,14.74c2.34.31,4.71.48,7.12.48s4.66-.16,6.94-.45l.04-7.71h21.17c5.68-3.62,10.68-8.36,14.68-14.06h-42.85c-.53,0-1.05.07-1.55.18h0Z"/>
  <path class="st0" d="M98.08,216.59c6.65-.34,12.96-1.82,18.77-4.27.98-.41,1.96-.85,2.91-1.32,2.98-1.47,5.8-3.21,8.45-5.17,1.96-1.45,3.82-3.03,5.58-4.73h0c.45-.43.89-.86,1.33-1.31,1.9-1.96,3.66-4.07,5.26-6.3.86-1.2,1.67-2.45,2.44-3.73.53-.88,1.05-1.77,1.53-2.68,4.5-8.41,7.06-18.14,7.06-28.61l.23-46.77c-2.23.16-4.48.25-6.75.25-2.46,0-4.89-.11-7.31-.3l-.23,46.78c0,11.44-3.96,21.73-10.55,29.49-2.99,3.53-6.53,6.53-10.48,8.88-5.05,3.01-10.78,4.96-16.95,5.57h0c-1.39.14-2.79.21-4.22.21-4.92,0-9.65-.81-14.07-2.3-6.71-2.26-12.71-6.09-17.55-11.06-6.24-6.41-10.56-14.7-12.01-23.93l16.5-.34,6.68-.14,5.52-.11,6.78-.14c.29,0,.57-.03.85-.07,1.94-.28,3.6-1.36,4.7-2.87.85-1.17,1.35-2.61,1.33-4.16v-.07c0-.23-.05-.45-.08-.68h0c-.03-.22-.03-.44-.08-.65h0c-.05-.24-.14-.47-.22-.71h0c-.02-.08-.05-.15-.07-.23-.05-.12-.07-.25-.12-.37-.1-.23-.23-.43-.35-.64h0c-.03-.05-.06-.11-.09-.16-.07-.13-.13-.25-.21-.37h0c-.12-.18-.28-.34-.42-.51-.02-.02-.03-.04-.05-.05h0c-.13-.15-.25-.32-.39-.46-.1-.09-.2-.17-.31-.26-.08-.07-.16-.14-.25-.21h-.01c-.16-.13-.3-.27-.47-.38q-.11-.07,0,0c-.15-.1-.31-.17-.46-.25-.07-.04-.15-.08-.22-.12-.17-.09-.33-.2-.5-.27-.28-.12-.58-.19-.88-.27-.15-.04-.28-.1-.43-.13-.45-.09-.92-.14-1.4-.14h-.15l-17.82.37-3.92.08-21.15.44c-3.82.08-6.88,3.2-6.88,7.03,0,32.1,26.12,58.22,58.22,58.22.98,0,1.95-.02,2.92-.07h-.01Z"/>
  <path class="st0" d="M212.05,62.07c.08-.13.12-.27.19-.4h0c.12-.23.24-.47.34-.71h0c.08-.21.14-.43.2-.65h0c.06-.22.13-.43.16-.65,0-.06,0-.13.02-.2.02-.19.05-.39.06-.59h0c0-.2.03-.39.03-.59h0c0-.27-.04-.52-.08-.78h0c-.02-.16-.04-.32-.07-.48,0-.04,0-.08-.02-.12h0c-.05-.23-.13-.44-.2-.66h0c-.07-.21-.13-.42-.22-.62q-.06-.13,0,0c.09.2,0,0,0,0-.09-.2-.21-.39-.32-.59h0c-.09-.15-.17-.31-.27-.46-.02-.04-.04-.08-.07-.12-.03-.04-.06-.08-.1-.12-.11-.14-.22-.27-.33-.4h0s-.06-.06-.08-.09c-.12-.14-.23-.29-.37-.42h0c-.15-.14-.31-.26-.47-.39h0c-.2-.16-.4-.33-.63-.48h0s-.08-.06-.12-.09c-.13-.08-.26-.12-.39-.19h0c-.17-.09-.32-.19-.5-.27-.04-.02-.09-.03-.13-.05-.03,0-.06-.02-.09-.03,0,0-.02,0-.03,0-.1-.04-.21-.07-.31-.11-.1-.03-.2-.05-.3-.08h0c-.11-.03-.22-.08-.33-.1-.1-.02-.21-.04-.31-.06h-.03s-.05,0-.07-.02c-.05,0-.11-.02-.16-.03-.18-.03-.36-.02-.54-.03h0c-.15,0-.3-.05-.46-.05h0c-.07,0-.14,0-.2,0-.09,0-.19,0-.28.02-.36.02-.71.07-1.06.15-.05,0-.1.02-.14.03-.38.09-.76.23-1.12.39-.09.04-.17.08-.26.12-.34.16-.67.35-.98.57-.02.02-.05.03-.08.05-.33.24-.63.51-.91.8-.07.07-.14.15-.2.22-.28.31-.54.64-.76,1.01h0c-.71,1.17-1.46,2.3-2.23,3.41-.03.04-.06.09-.09.14-1.34,1.91-2.78,3.71-4.29,5.44-.5.58-1.01,1.15-1.52,1.7q-.34.37,0,0c-.75.8-1.5,1.59-2.28,2.35-.1.09-.2.18-.3.27-3.91,3.73-8.24,6.93-12.9,9.54-3.95,2.21-8.13,3.97-12.49,5.3-3.93,1.2-8,2.03-12.17,2.47-2.27.24-4.56.39-6.88.39s-4.81-.16-7.18-.42c-4.16-.46-8.22-1.3-12.14-2.52-9.54-2.96-18.24-8.09-25.44-15.06-2.96-2.87-5.68-6.04-8.1-9.5-.81-1.15-1.58-2.34-2.32-3.55h0c-.22-.37-.49-.7-.76-1.01-.07-.07-.13-.15-.2-.22-.29-.3-.59-.57-.91-.81-.02-.02-.04-.03-.07-.04-.31-.22-.64-.41-.99-.57-.08-.04-.17-.08-.26-.12-.36-.16-.74-.29-1.12-.39-.04,0-.09-.02-.13-.03-.35-.08-.71-.13-1.07-.15-.09,0-.19-.02-.28-.02-.4,0-.8,0-1.2.06-.05,0-.1.02-.15.03-.35.06-.7.15-1.05.26-.1.03-.21.07-.31.11-.39.15-.77.32-1.14.55h0c-.18.11-.32.25-.49.37-2.91,2.13-3.77,6.15-1.87,9.29,3.15,5.18,6.81,9.9,10.9,14.12s8.61,7.93,13.47,11.09c4.86,3.16,10.06,5.77,15.52,7.77,2.58.95,5.22,1.76,7.91,2.43,3.95.99,8.01,1.69,12.14,2.06,2.39.22,4.81.33,7.25.33,1.6,0,3.19-.05,4.76-.15.33-.02.67-.04,1-.07.35-.03.7-.05,1.05-.08,3.33-.28,6.62-.77,9.84-1.46.43-.09.86-.18,1.29-.28.34-.08.69-.17,1.03-.25,6.46-1.58,12.64-3.97,18.42-7.09,6.35-3.43,12.21-7.73,17.43-12.83,4.67-4.57,8.82-9.76,12.34-15.53l-.03-.06Z"/>
</svg>